<svg width="338" height="68" viewBox="0 0 338 68" fill="none" xmlns="http://www.w3.org/2000/svg">
<g clip-path="url(#clip0_440_653)">
<path d="M47.7316 14.3413L39.4857 28.639L31.2007 14.288L39.4515 0L47.7316 14.3413Z" fill="#00BF7F"/>
<path d="M37.2337 32.5397L16.7556 68.0001H0L28.851 18.0334L37.2337 32.5397Z" fill="#00BF7F"/>
<path d="M78.9469 68.0001H21.245L50.0911 18.0334L78.9469 68.0001Z" fill="#00BF7F"/>
<path d="M78.947 27.038C78.947 17.097 84.4426 11.5953 92.7765 11.5953C98.917 11.5953 104.159 14.5791 105.145 20.9347H99.5178C98.575 17.524 95.6538 16.4566 92.7765 16.4566C87.105 16.4566 84.6136 20.6775 84.6136 26.8633C84.6136 33.0491 87.1929 37.401 92.8595 37.401C96.6405 37.401 100.207 35.4798 100.207 30.2352H93.9342V25.7135H105.829V28.5274C105.829 37.5708 100.974 42.2623 92.8595 42.2623C84.0127 42.2623 78.9421 36.6296 78.9421 27.0331L78.947 27.038Z" fill="white"/>
<path d="M109.996 19.6587H115.492V24.947H115.619C116.347 21.9584 118.452 19.4016 122.233 19.4016C122.746 19.4016 123.352 19.4453 123.953 19.6151V24.2241C123.308 24.1368 122.795 24.098 122.233 24.098C118.54 24.098 115.492 26.3151 115.492 31.5209V41.8451H109.996V19.6587Z" fill="white"/>
<path d="M125.325 30.7058C125.325 22.5163 130.435 19.2318 136.278 19.2318C142.12 19.2318 146.756 22.3902 146.756 30.4924C146.756 31.2589 146.712 31.6859 146.629 32.1565H130.523C130.865 36.2949 132.971 38.0851 136.493 38.0851C139.282 38.0851 140.918 37.0178 141.563 34.8879H146.458C145.256 39.9239 141.348 42.2672 136.366 42.2672C130.567 42.2672 125.325 38.9827 125.325 30.7058ZM141.558 28.8283C141.431 25.7135 139.795 23.409 136.19 23.409C132.971 23.409 130.948 25.1993 130.562 28.8283H141.558Z" fill="white"/>
<path d="M149.418 30.7058C149.418 22.5163 154.528 19.2318 160.371 19.2318C166.213 19.2318 170.849 22.3902 170.849 30.4924C170.849 31.2589 170.805 31.6859 170.722 32.1565H154.616C154.958 36.2949 157.063 38.0851 160.586 38.0851C163.375 38.0851 165.011 37.0178 165.656 34.8879H170.551C169.349 39.9239 165.441 42.2672 160.459 42.2672C154.66 42.2672 149.418 38.9827 149.418 30.7058ZM165.651 28.8283C165.524 25.7135 163.888 23.409 160.283 23.409C157.063 23.409 155.041 25.1993 154.655 28.8283H165.651Z" fill="white"/>
<path d="M185.064 23.7535C182.06 23.7535 179.867 25.5437 179.867 29.1727V41.8403H174.371V19.6588H179.867V24.2241H180.038C180.468 22.3029 182.617 19.2318 187.341 19.2318C191.723 19.2318 195.113 21.8759 195.113 27.8919V41.8403H189.617V29.1727C189.617 25.5486 188.03 23.7535 185.064 23.7535Z" fill="white"/>
<path d="M208.986 26.907C208.986 17.1795 214.482 11.5953 222.987 11.5953C229.43 11.5953 234.584 14.8362 235.273 21.9195H229.777C228.873 18.1256 226.211 16.4615 222.86 16.4615C217.403 16.4615 214.741 20.726 214.741 26.9118C214.741 33.0976 217.32 37.4058 222.86 37.4058C226.211 37.4058 228.873 35.7417 229.777 31.9041H235.273C234.584 39.0263 229.43 42.2671 222.948 42.2671C214.487 42.2671 208.991 36.6781 208.991 26.9118L208.986 26.907Z" fill="white"/>
<path d="M238.878 19.6587H244.374V24.947H244.501C245.228 21.9584 247.334 19.4016 251.115 19.4016C251.628 19.4016 252.234 19.4453 252.834 19.6151V24.2241C252.19 24.1368 251.677 24.098 251.115 24.098C247.422 24.098 244.374 26.3151 244.374 31.5209V41.8451H238.878V19.6587Z" fill="white"/>
<path d="M254.212 30.7058C254.212 22.5163 259.322 19.2318 265.164 19.2318C271.007 19.2318 275.643 22.3902 275.643 30.4924C275.643 31.2589 275.599 31.6859 275.516 32.1565H259.41C259.752 36.2949 261.857 38.0851 265.379 38.0851C268.169 38.0851 269.805 37.0178 270.45 34.8879H275.345C274.143 39.9239 270.235 42.2672 265.252 42.2672C259.454 42.2672 254.212 38.9827 254.212 30.7058ZM270.445 28.8283C270.318 25.7135 268.681 23.409 265.076 23.409C261.857 23.409 259.835 25.1993 259.449 28.8283H270.445Z" fill="white"/>
<path d="M278.09 36.0377C278.09 31.4286 281.739 30.109 285.823 29.5559L289.99 29.0028C292.178 28.702 292.823 28.3188 292.823 27.1689V26.6983C292.823 24.0105 291.192 23.2003 288.788 23.2003C286.385 23.2003 284.45 24.0105 284.45 26.4412V26.9118H279.297V25.9318C279.297 21.6236 282.262 19.2366 288.915 19.2366C295.569 19.2366 298.236 21.5847 298.236 26.4897V41.845H292.955V37.8764H292.74C292.266 39.1136 290.249 42.272 285.266 42.272C281.485 42.272 278.095 40.4817 278.095 36.0425L278.09 36.0377ZM287.069 38.2985C290.591 38.2985 292.823 35.9552 292.823 34.1601V31.3462C292.52 31.8604 291.451 32.1127 290.205 32.2825L286.639 32.8356C284.318 33.1752 283.591 34.2426 283.591 35.567C283.591 37.2748 284.748 38.2985 287.069 38.2985Z" fill="white"/>
<path d="M304.415 35.6108V23.9233H300.678V19.6587H304.415V13.9872H309.911V19.6587H314.293V23.9233H309.911V34.7569C309.911 36.6781 310.512 37.7406 312.832 37.7406C313.35 37.7406 313.736 37.7406 314.552 37.6533V41.748C313.609 42.0052 312.534 42.1313 311.372 42.1313C307.161 42.1313 304.415 40.2974 304.415 35.6059V35.6108Z" fill="white"/>
<path d="M316.569 30.7058C316.569 22.5163 321.679 19.2318 327.522 19.2318C333.364 19.2318 338 22.3902 338 30.4924C338 31.2589 337.956 31.6859 337.873 32.1565H321.767C322.109 36.2949 324.214 38.0851 327.737 38.0851C330.526 38.0851 332.162 37.0178 332.807 34.8879H337.702C336.5 39.9239 332.592 42.2672 327.61 42.2672C321.811 42.2672 316.569 38.9827 316.569 30.7058ZM332.802 28.8283C332.675 25.7135 331.039 23.409 327.434 23.409C324.214 23.409 322.192 25.1993 321.806 28.8283H332.802Z" fill="white"/>
<path d="M94.8184 59.9464H96.3035L97.9741 66.3166H98.0328L99.9917 59.9464H101.34L103.299 66.3166H103.357L105.028 59.9464H106.513L104.281 67.8497H102.537L100.671 61.9841L98.7899 67.8497H97.046L94.8282 59.9464H94.8184Z" fill="white"/>
<path d="M106.933 65.7829C106.933 64.2643 108.052 63.6385 109.474 63.4735L111.447 63.2455C112.18 63.1533 112.424 63.0175 112.424 62.7749V62.5614C112.424 61.3 111.765 60.9653 110.651 60.9653C109.537 60.9653 108.858 61.3 108.858 62.3043V62.4887H107.373V62.1685C107.373 60.5868 108.492 59.796 110.68 59.796C112.869 59.796 113.968 60.6305 113.968 62.5469V67.8497H112.512V66.5737H112.453C112.302 66.8794 111.55 68.0049 109.591 68.0049C108.106 68.0049 106.928 67.35 106.928 65.7877L106.933 65.7829ZM109.977 66.8017C111.662 66.8017 112.424 65.7683 112.424 64.9193V64.0509C112.317 64.2158 112.116 64.3226 111.34 64.4147L109.84 64.6137C108.843 64.7349 108.477 65.0843 108.477 65.7101C108.477 66.4573 109.014 66.8066 109.977 66.8066V66.8017Z" fill="white"/>
<path d="M115.213 65.4918H116.606C116.728 66.4621 117.568 66.8163 118.55 66.8163C119.532 66.8163 120.294 66.467 120.294 65.6179C120.294 64.9775 119.849 64.7204 119.102 64.5554L117.617 64.2207C116.117 63.8714 115.443 63.1097 115.443 62.0472C115.443 60.6014 116.684 59.796 118.535 59.796C120.387 59.796 121.579 60.6451 121.657 62.2752H120.357C120.221 61.3049 119.546 60.9847 118.55 60.9847C117.553 60.9847 116.943 61.334 116.943 62.0181C116.943 62.5663 117.294 62.901 118.12 63.0806L119.62 63.4153C120.905 63.721 121.867 64.2352 121.867 65.5888C121.867 67.3354 120.274 68.0049 118.53 68.0049C116.615 68.0049 115.257 67.2141 115.209 65.4966L115.213 65.4918Z" fill="white"/>
<path d="M123.889 65.846V61.1642H122.59V59.9464H123.889V57.9573H125.433V59.9464H127.011V61.1642H125.433V65.5888C125.433 66.3651 125.692 66.7144 126.552 66.7144C126.737 66.7144 126.874 66.7144 127.118 66.6853V67.84C126.825 67.9176 126.493 67.9613 126.122 67.9613C124.788 67.9613 123.889 67.3985 123.889 65.8508V65.846Z" fill="white"/>
<path d="M127.914 63.915C127.914 61.0138 129.658 59.796 131.71 59.796C133.762 59.796 135.335 61.0283 135.335 63.7937C135.335 64.0654 135.32 64.2207 135.291 64.3856H129.4C129.522 66.0449 130.362 66.8017 131.788 66.8017C132.765 66.8017 133.518 66.4524 133.855 65.5258H135.232C134.758 67.2869 133.395 68.0049 131.774 68.0049C129.629 68.0049 127.919 66.7581 127.919 63.915H127.914ZM133.869 63.231C133.84 61.8482 133.058 60.9992 131.695 60.9992C130.425 60.9992 129.551 61.727 129.414 63.231H133.869Z" fill="white"/>
<path d="M136.419 63.032H140.796V64.2012H136.419V63.032Z" fill="white"/>
<path d="M143.029 65.846V61.1642H141.729V59.9464H143.029V57.9573H144.572V59.9464H146.15V61.1642H144.572V65.5888C144.572 66.3651 144.831 66.7144 145.691 66.7144C145.877 66.7144 146.014 66.7144 146.258 66.6853V67.84C145.965 67.9176 145.632 67.9613 145.261 67.9613C143.928 67.9613 143.029 67.3985 143.029 65.8508V65.846Z" fill="white"/>
<path d="M147.054 63.9005C147.054 61.072 148.949 59.796 150.928 59.796C152.906 59.796 154.816 61.072 154.816 63.9005C154.816 66.729 152.921 68.0049 150.928 68.0049C148.935 68.0049 147.054 66.729 147.054 63.9005ZM150.928 66.7095C152.213 66.7095 153.346 65.8411 153.346 63.9005C153.346 61.9598 152.213 61.0865 150.928 61.0865C149.643 61.0865 148.524 61.955 148.524 63.9005C148.524 65.846 149.643 66.7095 150.928 66.7095Z" fill="white"/>
<path d="M155.901 63.032H160.278V64.2012H155.901V63.032Z" fill="white"/>
<path d="M161.206 59.9464H162.784L165.173 66.3893H165.231L167.62 59.9464H169.198L166.169 67.8497H164.225L161.211 59.9464H161.206Z" fill="white"/>
<path d="M169.457 65.7829C169.457 64.2643 170.575 63.6385 171.997 63.4735L173.971 63.2455C174.703 63.1533 174.948 63.0175 174.948 62.7749V62.5614C174.948 61.3 174.288 60.9653 173.174 60.9653C172.061 60.9653 171.381 61.3 171.381 62.3043V62.4887H169.896V62.1685C169.896 60.5868 171.015 59.796 173.204 59.796C175.392 59.796 176.491 60.6305 176.491 62.5469V67.8497H175.035V66.5737H174.977C174.825 66.8794 174.073 68.0049 172.114 68.0049C170.629 68.0049 169.452 67.35 169.452 65.7877L169.457 65.7829ZM172.5 66.8017C174.185 66.8017 174.948 65.7683 174.948 64.9193V64.0509C174.84 64.2158 174.64 64.3226 173.863 64.4147L172.363 64.6137C171.367 64.7349 171 65.0843 171 65.7101C171 66.4573 171.538 66.8066 172.5 66.8066V66.8017Z" fill="white"/>
<path d="M178.191 57.2101H179.735V67.8496H178.191V57.2101Z" fill="white"/>
<path d="M184.864 66.7095C186.12 66.7095 186.989 65.9333 186.989 64.5215V59.9464H188.533V67.8497H186.989V66.268H186.945C186.808 66.8599 186.041 68.0001 184.268 68.0001C182.705 68.0001 181.454 67.1025 181.454 64.8708V59.9464H182.998V64.5215C182.998 65.9333 183.609 66.7095 184.864 66.7095Z" fill="white"/>
<path d="M189.866 63.915C189.866 61.0138 191.61 59.796 193.662 59.796C195.714 59.796 197.287 61.0283 197.287 63.7937C197.287 64.0654 197.272 64.2207 197.243 64.3856H191.351C191.474 66.0449 192.314 66.8017 193.74 66.8017C194.717 66.8017 195.47 66.4524 195.807 65.5258H197.184C196.71 67.2869 195.347 68.0049 193.726 68.0049C191.581 68.0049 189.871 66.7581 189.871 63.915H189.866ZM195.821 63.231C195.792 61.8482 195.01 60.9992 193.647 60.9992C192.377 60.9992 191.503 61.727 191.366 63.231H195.821Z" fill="white"/>
<path d="M201.678 65.4918H203.071C203.193 66.4621 204.033 66.8163 205.015 66.8163C205.997 66.8163 206.759 66.467 206.759 65.6179C206.759 64.9775 206.314 64.7204 205.567 64.5554L204.082 64.2207C202.582 63.8714 201.908 63.1097 201.908 62.0472C201.908 60.6014 203.149 59.796 205 59.796C206.852 59.796 208.044 60.6451 208.122 62.2752H206.822C206.686 61.3049 206.011 60.9847 205.015 60.9847C204.018 60.9847 203.408 61.334 203.408 62.0181C203.408 62.5663 203.759 62.901 204.585 63.0806L206.085 63.4153C207.369 63.721 208.332 64.2352 208.332 65.5888C208.332 67.3354 206.739 68.0049 204.995 68.0049C203.08 68.0049 201.722 67.2141 201.674 65.4966L201.678 65.4918Z" fill="white"/>
<path d="M209.206 63.9005C209.206 61.072 211.102 59.796 213.08 59.796C215.058 59.796 216.969 61.072 216.969 63.9005C216.969 66.729 215.073 68.0049 213.08 68.0049C211.087 68.0049 209.206 66.729 209.206 63.9005ZM213.08 66.7095C214.365 66.7095 215.498 65.8411 215.498 63.9005C215.498 61.9598 214.365 61.0865 213.08 61.0865C211.795 61.0865 210.677 61.955 210.677 63.9005C210.677 65.846 211.795 66.7095 213.08 66.7095Z" fill="white"/>
<path d="M218.297 57.2101H219.841V67.8496H218.297V57.2101Z" fill="white"/>
<path d="M224.97 66.7095C226.226 66.7095 227.095 65.9333 227.095 64.5215V59.9464H228.639V67.8497H227.095V66.268H227.051C226.914 66.8599 226.148 68.0001 224.374 68.0001C222.811 68.0001 221.56 67.1025 221.56 64.8708V59.9464H223.104V64.5215C223.104 65.9333 223.715 66.7095 224.97 66.7095Z" fill="white"/>
<path d="M231.12 65.846V61.1642H229.821V59.9464H231.12V57.9573H232.664V59.9464H234.242V61.1642H232.664V65.5888C232.664 66.3651 232.923 66.7144 233.783 66.7144C233.968 66.7144 234.105 66.7144 234.349 66.6853V67.84C234.056 67.9176 233.724 67.9613 233.353 67.9613C232.019 67.9613 231.12 67.3985 231.12 65.8508V65.846Z" fill="white"/>
<path d="M236.367 56.754C236.855 56.754 237.285 57.1664 237.285 57.6661C237.285 58.1658 236.855 58.5782 236.367 58.5782C235.878 58.5782 235.449 58.1852 235.449 57.6661C235.449 57.147 235.878 56.754 236.367 56.754ZM235.6 59.9464H237.144V67.8496H235.6V59.9464Z" fill="white"/>
<path d="M238.477 63.9005C238.477 61.072 240.373 59.796 242.351 59.796C244.33 59.796 246.24 61.072 246.24 63.9005C246.24 66.729 244.344 68.0049 242.351 68.0049C240.358 68.0049 238.477 66.729 238.477 63.9005ZM242.351 66.7095C243.636 66.7095 244.769 65.8411 244.769 63.9005C244.769 61.9598 243.636 61.0865 242.351 61.0865C241.066 61.0865 239.948 61.955 239.948 63.9005C239.948 65.846 241.066 66.7095 242.351 66.7095Z" fill="white"/>
<path d="M251.242 61.0865C249.986 61.0865 249.117 61.8628 249.117 63.2746V67.8497H247.573V59.9464H249.117V61.528H249.161C249.298 60.9361 250.065 59.796 251.838 59.796C253.401 59.796 254.652 60.6936 254.652 62.9253V67.8497H253.108V63.2746C253.108 61.8628 252.497 61.0865 251.242 61.0865Z" fill="white"/>
<path d="M255.907 65.4918H257.299C257.421 66.4621 258.262 66.8163 259.244 66.8163C260.225 66.8163 260.988 66.467 260.988 65.6179C260.988 64.9775 260.543 64.7204 259.796 64.5554L258.311 64.2207C256.811 63.8714 256.137 63.1097 256.137 62.0472C256.137 60.6014 257.377 59.796 259.229 59.796C261.08 59.796 262.272 60.6451 262.35 62.2752H261.051C260.914 61.3049 260.24 60.9847 259.244 60.9847C258.247 60.9847 257.636 61.334 257.636 62.0181C257.636 62.5663 257.988 62.901 258.814 63.0806L260.313 63.4153C261.598 63.721 262.561 64.2352 262.561 65.5888C262.561 67.3354 260.968 68.0049 259.224 68.0049C257.309 68.0049 255.951 67.2141 255.902 65.4966L255.907 65.4918Z" fill="white"/>
</g>
<defs>
<clipPath id="clip0_440_653">
<rect width="338" height="68" fill="white"/>
</clipPath>
</defs>
</svg>
